<?xml version="1.0" encoding="UTF-8"?>
<svg id="Camada_1" xmlns="http://www.w3.org/2000/svg" version="1.1" viewBox="0 0 187.28 174.82">
  <!-- Generator: Adobe Illustrator 29.6.1, SVG Export Plug-In . SVG Version: 2.1.1 Build 9)  -->
  <defs>
    <style>
      .st0 {
        fill: #606060;
      }

      .st1 {
        fill: #56ed76;
      }

      .st2 {
        fill: #fff;
      }

      .st3 {
        fill: #42db79;
      }

      .st4 {
        display: none;
      }

      .st5 {
        fill: #616160;
      }
    </style>
  </defs>
  <rect class="st0" x="-326.64" y="-450.87" width="1348.44" height="275.64"/>
  <g class="st4">
    <polygon class="st2" points="421.47 -245.16 421.47 -245.16 420.83 -319.41 421.47 -392.47 421.47 -392.47 422.5 -319.41 421.47 -245.16"/>
    <g>
      <path class="st2" d="M215.05-334.03c0,10.15-9.37,17.05-27.26,17.05-12.68,0-23.32-3.45-31.07-9.65l7.54-8.88c5.85,4.93,13.95,7.68,23.81,7.68,8.45,0,12.68-1.55,12.68-4.79s-3.95-4.23-14.09-5.07c-14.65-1.27-27.97-4.51-27.97-15.5s11.41-16.34,27.05-16.34c10.57,0,20.29,2.54,27.05,7.33l-7.26,8.95c-5.5-3.87-12.12-5.42-19.8-5.5-5.78,0-12.75.92-12.75,4.44,0,3.31,5.71,3.73,14.51,4.44,16.13,1.34,27.55,4.51,27.55,15.85Z"/>
      <path class="st2" d="M277.86-350.66c0,11.48-8.95,17.26-22.4,17.26h-19.87v14.79h-14.37v-49.31h34.24c13.46,0,22.4,5.92,22.4,17.26ZM263.28-350.38c0-5-3.66-6.62-9.02-6.62h-18.67v13.17h18.67c5.35,0,9.02-1.62,9.02-6.55Z"/>
    </g>
    <g>
      <path class="st2" d="M155.09-281.74c0-16.06,11.27-26.14,30.01-26.14s30.01,10.07,30.01,26.14-11.27,26.14-30.01,26.14-30.01-10.08-30.01-26.14ZM209.06-281.74c0-13.25-9.44-20.64-23.95-20.64s-23.95,7.4-23.95,20.64,9.44,20.64,23.95,20.64,23.95-7.4,23.95-20.64Z"/>
      <path class="st2" d="M273.14-290.76c0,9.86-7.54,15.64-18.88,15.64h-27.05v18.04h-5.92v-49.31h32.97c11.34,0,18.88,5.78,18.88,15.64ZM267.08-290.76c0-6.9-5.21-10.15-13.24-10.15h-26.63v20.29h26.63c8.03,0,13.24-3.24,13.24-10.14Z"/>
      <path class="st2" d="M327-262.58v5.5h-47.69v-49.31h46.99v5.49h-41.07v15.99h34.8v5.49h-34.8v16.84h41.78Z"/>
      <path class="st2" d="M385.59-306.4v49.31h-5.21l-41.42-41.78v41.78h-5.78v-49.31h6.41l40.23,40.65v-40.65h5.78Z"/>
    </g>
    <path class="st2" d="M112.07-357.4c-.5-9.47-9.43-35.07-47.62-35.07-31.21,0-41.73,18.96-41.73,27.77,0,13.81,13.5,27.41,23.43,37.88,43.89,46.32,1.15,79.9-24.02,64.96-.66-.39-3.12-1.81-4.68-3.16-.3,1.33,3.9,5.51,8.62,9.09,11.44,7.04,26.18,10.76,36.71,10.76,13.93,0,15.21-1.23,18.14-4.71,8.87-10.54,13.95-38.14.5-71.41,21-7.46,31.43-21.3,30.65-36.12ZM31.69-267.08c1.28-.35,2.41-.81,3.36-1.32h0c12.62-6.18,19.41-24.4-5.04-49.71-10.59-10.97-18.63-21.21-18.63-37.76,0-12.19,8.71-19.92,15.66-23.93-3.65.08-5.87,1.39-9.53,4.28-6.27,4.95-13.11,12.61-17.69,21.16-.45.84-.86,1.67-1.22,2.47-5.11,9.57-7.8,20.77-7.8,33.08,0,.7.01,1.39.03,2.07.31,12.08,3.59,22.94,8.59,32.53,3.83,6.69,8.55,12.05,14.43,15.18,1.2.59,2.41,1.08,3.6,1.47,4.48,1.8,9.58,1.89,14.25.48ZM129.31-353.93c-.07-.14-.15-.28-.22-.42-6.29-11.54-17.79-23.24-21.89-21.82,8,5.94,15.04,13.25,16.49,26.98,1.64,15.48-8.05,31.2-22.69,37.62,3.47,17.29,5.94,39.78-.84,51.63-2.1,3.66-6.07,6.2-9.18,7.47,3.65,1.31,8.12-.97,13.12-4.25,19.79-12.98,31.95-33.28,33.8-56.52.14-1.86.22-3.71.22-5.58,0-13.2-3.02-25.12-8.8-35.13Z"/>
    <g>
      <path class="st2" d="M686.41-320.23c-2.84,0-5.6.92-7.77,2.66l.92-17.57h16.62v-6.66h-22.97l-1.67,32.56,6.6.75c1.34-4,3.93-5.16,6.43-5.16,3.34,0,5.68,2.08,5.68,7.5v9.58c0,5.25-2.5,7.41-6.51,7.41s-6.01-2.58-6.43-10.41l-6.68.58c.42,11.08,5.01,16.49,13.03,16.49s13.78-4.83,13.78-13.99v-10.91c0-7.58-4.18-12.82-11.03-12.82Z"/>
      <polygon class="st2" points="593.81 -342.1 554.38 -342.1 550.28 -328.83 562.54 -328.83 548.53 -283.51 563.39 -283.51 577.4 -328.83 589.71 -328.83 593.81 -342.1"/>
      <path class="st2" d="M654-342.8c-8.69,0-12.95,5.66-13.36,17.49l6.68.5c.42-8.91,3.01-11.32,6.6-11.32,3.26,0,5.76,1.92,5.76,5.83v1c0,5.83-4.26,10.66-7.27,14.49-4.76,5.74-11.44,14.57-11.44,25.32v6h25.89v-6.66h-18.37c.42-8.08,4.43-13.66,8.35-18.49,4.68-5.5,10.02-11.58,10.02-19.57v-2.25c0-7.91-5.09-12.32-12.86-12.32Z"/>
      <path class="st2" d="M595.99-333.85l-15.55,50.34h15.37l4.21-13.64c4.5,2.59,8.18,6.98,9.79,13.64h14.66v-58.59h-17.26c-5.15,0-9.7,3.35-11.22,8.25ZM609.82-298.96c-2.82-1.49-5.78-2.34-8.4-2.7l8.4-27.18v29.88Z"/>
      <path class="st2" d="M716.51-342.8c-7.6,0-13.86,4.99-13.86,14.66v30.89c0,9.66,6.26,14.74,13.86,14.74s13.78-5.08,13.78-14.74v-30.89c0-9.66-6.18-14.66-13.78-14.66ZM723.19-297.42c0,5.41-2.75,8.16-6.68,8.16s-6.77-2.75-6.77-8.16v-30.56c0-5.41,2.92-8.16,6.77-8.16s6.68,2.75,6.68,8.16v30.56Z"/>
      <path class="st2" d="M534.25-342.1l-14,45.33v-45.33h-17.26c-5.15,0-9.7,3.35-11.22,8.25l-11.45,37.07v-45.33h-14.66v58.59h17.26c5.16,0,9.7-3.35,11.22-8.25l11.45-37.07v45.33h17.26c5.15,0,9.7-3.35,11.22-8.25l15.55-50.34h-15.38Z"/>
    </g>
  </g>
  <g class="st4">
    <polygon class="st2" points="421.47 -245.16 421.47 -245.16 420.83 -319.41 421.47 -392.47 421.47 -392.47 422.5 -319.41 421.47 -245.16"/>
    <g>
      <path class="st2" d="M215.05-334.03c0,10.15-9.37,17.05-27.26,17.05-12.68,0-23.32-3.45-31.07-9.65l7.54-8.88c5.85,4.93,13.95,7.68,23.81,7.68,8.45,0,12.68-1.55,12.68-4.79s-3.95-4.23-14.09-5.07c-14.65-1.27-27.97-4.51-27.97-15.5s11.41-16.34,27.05-16.34c10.57,0,20.29,2.54,27.05,7.33l-7.26,8.95c-5.5-3.87-12.12-5.42-19.8-5.5-5.78,0-12.75.92-12.75,4.44,0,3.31,5.71,3.73,14.51,4.44,16.13,1.34,27.55,4.51,27.55,15.85Z"/>
      <path class="st2" d="M277.86-350.66c0,11.48-8.95,17.26-22.4,17.26h-19.87v14.79h-14.37v-49.31h34.24c13.46,0,22.4,5.92,22.4,17.26ZM263.28-350.38c0-5-3.66-6.62-9.02-6.62h-18.67v13.17h18.67c5.35,0,9.02-1.62,9.02-6.55Z"/>
    </g>
    <g>
      <path class="st2" d="M155.09-281.74c0-16.06,11.27-26.14,30.01-26.14s30.01,10.07,30.01,26.14-11.27,26.14-30.01,26.14-30.01-10.08-30.01-26.14ZM209.06-281.74c0-13.25-9.44-20.64-23.95-20.64s-23.95,7.4-23.95,20.64,9.44,20.64,23.95,20.64,23.95-7.4,23.95-20.64Z"/>
      <path class="st2" d="M273.14-290.76c0,9.86-7.54,15.64-18.88,15.64h-27.05v18.04h-5.92v-49.31h32.97c11.34,0,18.88,5.78,18.88,15.64ZM267.08-290.76c0-6.9-5.21-10.15-13.24-10.15h-26.63v20.29h26.63c8.03,0,13.24-3.24,13.24-10.14Z"/>
      <path class="st2" d="M327-262.58v5.5h-47.69v-49.31h46.99v5.49h-41.07v15.99h34.8v5.49h-34.8v16.84h41.78Z"/>
      <path class="st2" d="M385.59-306.4v49.31h-5.21l-41.42-41.78v41.78h-5.78v-49.31h6.41l40.23,40.65v-40.65h5.78Z"/>
    </g>
    <g>
      <circle class="st2" cx="64.45" cy="-318.9" r="71.51"/>
      <path class="st1" d="M112.07-357.4c-.5-9.47-9.43-35.07-47.62-35.07-31.21,0-41.73,18.96-41.73,27.77,0,13.81,13.5,27.41,23.43,37.88,43.89,46.32,1.15,79.9-24.02,64.96-.66-.39-3.12-1.81-4.68-3.16-.3,1.33,3.9,5.51,8.62,9.09,11.44,7.04,26.18,10.76,36.71,10.76,13.93,0,15.21-1.23,18.14-4.71,8.87-10.54,13.95-38.14.5-71.41,21-7.46,31.43-21.3,30.65-36.12ZM31.69-267.08c1.28-.35,2.41-.81,3.36-1.32h0c12.62-6.18,19.41-24.4-5.04-49.71-10.59-10.97-18.63-21.21-18.63-37.76,0-12.19,8.71-19.92,15.66-23.93-3.65.08-5.87,1.39-9.53,4.28-6.27,4.95-13.11,12.61-17.69,21.16-.45.84-.86,1.67-1.22,2.47-5.11,9.57-7.8,20.77-7.8,33.08,0,.7.01,1.39.03,2.07.31,12.08,3.59,22.94,8.59,32.53,3.83,6.69,8.55,12.05,14.43,15.18,1.2.59,2.41,1.08,3.6,1.47,4.48,1.8,9.58,1.89,14.25.48ZM129.31-353.93c-.07-.14-.15-.28-.22-.42-6.29-11.54-17.79-23.24-21.89-21.82,8,5.94,15.04,13.25,16.49,26.98,1.64,15.48-8.05,31.2-22.69,37.62,3.47,17.29,5.94,39.78-.84,51.63-2.1,3.66-6.07,6.2-9.18,7.47,3.65,1.31,8.12-.97,13.12-4.25,19.79-12.98,31.95-33.28,33.8-56.52.14-1.86.22-3.71.22-5.58,0-13.2-3.02-25.12-8.8-35.13Z"/>
      <path class="st3" d="M34.25-383.81c-8.26,6.17-11.53,14.21-11.53,19.11,0,13.81,13.5,27.41,23.43,37.88,43.89,46.32,1.15,79.9-24.02,64.96-.66-.39-3.12-1.81-4.68-3.16-.18.82,1.33,2.7,3.61,4.86,17.57,10.81,44.76,1.85,47.11-24.08,3.67-40.46-42.89-55.64-42.89-80.3,0-8,3.68-14.4,8.96-19.27ZM29.77-266.59c.65-.14,1.29-.29,1.92-.49,1.28-.35,2.41-.81,3.36-1.32h0c12.62-6.18,19.41-24.4-5.04-49.71-10.59-10.97-18.63-21.21-18.63-37.76,0-12.19,8.71-19.92,15.66-23.93-3.58.08-5.8,1.35-9.33,4.12-15.46,12.77-14.76,36,9.1,60.29,27.89,28.39,14.49,45.37,2.98,48.78ZM119.32-368.01c-4.89-5.4-9.75-8.98-12.12-8.16,8,5.94,15.04,13.25,16.49,26.98,1.64,15.48-8.05,31.2-22.69,37.62,3.47,17.29,5.94,39.78-.84,51.63-2.1,3.66-6.07,6.2-9.18,7.47,1.95.7,4.14.37,6.51-.58,7.93-4.44,14.01-21.51,6.85-56.73,22.11-12.53,29.67-39.81,14.99-58.23ZM112.07-357.4c-.25-4.76-2.63-13.59-9.79-21.2,17.07,19.58,6.4,46.91-23.69,55.29,18.1,44.41,5.77,68.88-1.67,76.75,1.79-.75,2.74-1.82,4-3.32,8.87-10.54,13.95-38.14.5-71.41,21-7.46,31.43-21.3,30.65-36.12Z"/>
    </g>
    <g>
      <path class="st2" d="M686.41-320.23c-2.84,0-5.6.92-7.77,2.66l.92-17.57h16.62v-6.66h-22.97l-1.67,32.56,6.6.75c1.34-4,3.93-5.16,6.43-5.16,3.34,0,5.68,2.08,5.68,7.5v9.58c0,5.25-2.5,7.41-6.51,7.41s-6.01-2.58-6.43-10.41l-6.68.58c.42,11.08,5.01,16.49,13.03,16.49s13.78-4.83,13.78-13.99v-10.91c0-7.58-4.18-12.82-11.03-12.82Z"/>
      <polygon class="st2" points="593.81 -342.1 554.38 -342.1 550.28 -328.83 562.54 -328.83 548.53 -283.51 563.39 -283.51 577.4 -328.83 589.71 -328.83 593.81 -342.1"/>
      <path class="st2" d="M654-342.8c-8.69,0-12.95,5.66-13.36,17.49l6.68.5c.42-8.91,3.01-11.32,6.6-11.32,3.26,0,5.76,1.92,5.76,5.83v1c0,5.83-4.26,10.66-7.27,14.49-4.76,5.74-11.44,14.57-11.44,25.32v6h25.89v-6.66h-18.37c.42-8.08,4.43-13.66,8.35-18.49,4.68-5.5,10.02-11.58,10.02-19.57v-2.25c0-7.91-5.09-12.32-12.86-12.32Z"/>
      <path class="st2" d="M595.99-333.85l-15.55,50.34h15.37l4.21-13.64c4.5,2.59,8.18,6.98,9.79,13.64h14.66v-58.59h-17.26c-5.15,0-9.7,3.35-11.22,8.25ZM609.82-298.96c-2.82-1.49-5.78-2.34-8.4-2.7l8.4-27.18v29.88Z"/>
      <path class="st2" d="M716.51-342.8c-7.6,0-13.86,4.99-13.86,14.66v30.89c0,9.66,6.26,14.74,13.86,14.74s13.78-5.08,13.78-14.74v-30.89c0-9.66-6.18-14.66-13.78-14.66ZM723.19-297.42c0,5.41-2.75,8.16-6.68,8.16s-6.77-2.75-6.77-8.16v-30.56c0-5.41,2.92-8.16,6.77-8.16s6.68,2.75,6.68,8.16v30.56Z"/>
      <path class="st2" d="M534.25-342.1l-14,45.33v-45.33h-17.26c-5.15,0-9.7,3.35-11.22,8.25l-11.45,37.07v-45.33h-14.66v58.59h17.26c5.16,0,9.7-3.35,11.22-8.25l11.45-37.07v45.33h17.26c5.15,0,9.7-3.35,11.22-8.25l15.55-50.34h-15.38Z"/>
    </g>
  </g>
  <g class="st4">
    <polygon points="421.47 -245.16 421.47 -245.16 420.83 -319.41 421.47 -392.47 421.47 -392.47 422.5 -319.41 421.47 -245.16"/>
    <g>
      <path d="M215.05-334.03c0,10.15-9.37,17.05-27.26,17.05-12.68,0-23.32-3.45-31.07-9.65l7.54-8.88c5.85,4.93,13.95,7.68,23.81,7.68,8.45,0,12.68-1.55,12.68-4.79s-3.95-4.23-14.09-5.07c-14.65-1.27-27.97-4.51-27.97-15.5s11.41-16.34,27.05-16.34c10.57,0,20.29,2.54,27.05,7.33l-7.26,8.95c-5.5-3.87-12.12-5.42-19.8-5.5-5.78,0-12.75.92-12.75,4.44,0,3.31,5.71,3.73,14.51,4.44,16.13,1.34,27.55,4.51,27.55,15.85Z"/>
      <path d="M277.86-350.66c0,11.48-8.95,17.26-22.4,17.26h-19.87v14.79h-14.37v-49.31h34.24c13.46,0,22.4,5.92,22.4,17.26ZM263.28-350.38c0-5-3.66-6.62-9.02-6.62h-18.67v13.17h18.67c5.35,0,9.02-1.62,9.02-6.55Z"/>
    </g>
    <g>
      <path d="M155.09-281.74c0-16.06,11.27-26.14,30.01-26.14s30.01,10.07,30.01,26.14-11.27,26.14-30.01,26.14-30.01-10.08-30.01-26.14ZM209.06-281.74c0-13.25-9.44-20.64-23.95-20.64s-23.95,7.4-23.95,20.64,9.44,20.64,23.95,20.64,23.95-7.4,23.95-20.64Z"/>
      <path d="M273.14-290.76c0,9.86-7.54,15.64-18.88,15.64h-27.05v18.04h-5.92v-49.31h32.97c11.34,0,18.88,5.78,18.88,15.64ZM267.08-290.76c0-6.9-5.21-10.15-13.24-10.15h-26.63v20.29h26.63c8.03,0,13.24-3.24,13.24-10.14Z"/>
      <path d="M327-262.58v5.5h-47.69v-49.31h46.99v5.49h-41.07v15.99h34.8v5.49h-34.8v16.84h41.78Z"/>
      <path d="M385.59-306.4v49.31h-5.21l-41.42-41.78v41.78h-5.78v-49.31h6.41l40.23,40.65v-40.65h5.78Z"/>
    </g>
    <path d="M112.07-357.4c-.5-9.47-9.43-35.07-47.62-35.07-31.21,0-41.73,18.96-41.73,27.77,0,13.81,13.5,27.41,23.43,37.88,43.89,46.32,1.15,79.9-24.02,64.96-.66-.39-3.12-1.81-4.68-3.16-.3,1.33,3.9,5.51,8.62,9.09,11.44,7.04,26.18,10.76,36.71,10.76,13.93,0,15.21-1.23,18.14-4.71,8.87-10.54,13.95-38.14.5-71.41,21-7.46,31.43-21.3,30.65-36.12ZM31.69-267.08c1.28-.35,2.41-.81,3.36-1.32h0c12.62-6.18,19.41-24.4-5.04-49.71-10.59-10.97-18.63-21.21-18.63-37.76,0-12.19,8.71-19.92,15.66-23.93-3.65.08-5.87,1.39-9.53,4.28-6.27,4.95-13.11,12.61-17.69,21.16-.45.84-.86,1.67-1.22,2.47-5.11,9.57-7.8,20.77-7.8,33.08,0,.7.01,1.39.03,2.07.31,12.08,3.59,22.94,8.59,32.53,3.83,6.69,8.55,12.05,14.43,15.18,1.2.59,2.41,1.08,3.6,1.47,4.48,1.8,9.58,1.89,14.25.48ZM129.31-353.93c-.07-.14-.15-.28-.22-.42-6.29-11.54-17.79-23.24-21.89-21.82,8,5.94,15.04,13.25,16.49,26.98,1.64,15.48-8.05,31.2-22.69,37.62,3.47,17.29,5.94,39.78-.84,51.63-2.1,3.66-6.07,6.2-9.18,7.47,3.65,1.31,8.12-.97,13.12-4.25,19.79-12.98,31.95-33.28,33.8-56.52.14-1.86.22-3.71.22-5.58,0-13.2-3.02-25.12-8.8-35.13Z"/>
    <g>
      <path d="M686.41-320.23c-2.84,0-5.6.92-7.77,2.66l.92-17.57h16.62v-6.66h-22.97l-1.67,32.56,6.6.75c1.34-4,3.93-5.16,6.43-5.16,3.34,0,5.68,2.08,5.68,7.5v9.58c0,5.25-2.5,7.41-6.51,7.41s-6.01-2.58-6.43-10.41l-6.68.58c.42,11.08,5.01,16.49,13.03,16.49s13.78-4.83,13.78-13.99v-10.91c0-7.58-4.18-12.82-11.03-12.82Z"/>
      <polygon points="593.81 -342.1 554.38 -342.1 550.28 -328.83 562.54 -328.83 548.53 -283.51 563.39 -283.51 577.4 -328.83 589.71 -328.83 593.81 -342.1"/>
      <path d="M654-342.8c-8.69,0-12.95,5.66-13.36,17.49l6.68.5c.42-8.91,3.01-11.32,6.6-11.32,3.26,0,5.76,1.92,5.76,5.83v1c0,5.83-4.26,10.66-7.27,14.49-4.76,5.74-11.44,14.57-11.44,25.32v6h25.89v-6.66h-18.37c.42-8.08,4.43-13.66,8.35-18.49,4.68-5.5,10.02-11.58,10.02-19.57v-2.25c0-7.91-5.09-12.32-12.86-12.32Z"/>
      <path d="M595.99-333.85l-15.55,50.34h15.37l4.21-13.64c4.5,2.59,8.18,6.98,9.79,13.64h14.66v-58.59h-17.26c-5.15,0-9.7,3.35-11.22,8.25ZM609.82-298.96c-2.82-1.49-5.78-2.34-8.4-2.7l8.4-27.18v29.88Z"/>
      <path d="M716.51-342.8c-7.6,0-13.86,4.99-13.86,14.66v30.89c0,9.66,6.26,14.74,13.86,14.74s13.78-5.08,13.78-14.74v-30.89c0-9.66-6.18-14.66-13.78-14.66ZM723.19-297.42c0,5.41-2.75,8.16-6.68,8.16s-6.77-2.75-6.77-8.16v-30.56c0-5.41,2.92-8.16,6.77-8.16s6.68,2.75,6.68,8.16v30.56Z"/>
      <path d="M534.25-342.1l-14,45.33v-45.33h-17.26c-5.15,0-9.7,3.35-11.22,8.25l-11.45,37.07v-45.33h-14.66v58.59h17.26c5.16,0,9.7-3.35,11.22-8.25l11.45-37.07v45.33h17.26c5.15,0,9.7-3.35,11.22-8.25l15.55-50.34h-15.38Z"/>
    </g>
  </g>
  <g class="st4">
    <g>
      <g>
        <path class="st2" d="M239.07-312.19c0,11.64-10.75,19.56-31.28,19.56-14.55,0-26.75-3.96-35.64-11.07l8.65-10.18c6.71,5.66,16,8.81,27.32,8.81,9.7,0,14.55-1.78,14.55-5.5s-4.53-4.85-16.16-5.82c-16.81-1.45-32.08-5.17-32.08-17.78s13.09-18.75,31.03-18.75c12.12,0,23.28,2.91,31.03,8.41l-8.32,10.26c-6.3-4.44-13.9-6.22-22.71-6.3-6.63,0-14.63,1.05-14.63,5.09,0,3.8,6.55,4.28,16.65,5.09,18.51,1.53,31.6,5.17,31.6,18.18Z"/>
        <path class="st2" d="M311.13-331.27c0,13.17-10.26,19.8-25.7,19.8h-22.79v16.97h-16.49v-56.57h39.28c15.44,0,25.7,6.79,25.7,19.8ZM294.4-330.94c0-5.74-4.2-7.6-10.34-7.6h-21.42v15.11h21.42c6.14,0,10.34-1.86,10.34-7.52Z"/>
        <path class="st2" d="M329.93-322.78c0-18.43,12.93-29.98,34.43-29.98s34.43,11.56,34.43,29.98-12.93,29.98-34.43,29.98-34.43-11.56-34.43-29.98ZM391.83-322.78c0-15.19-10.83-23.68-27.48-23.68s-27.48,8.49-27.48,23.68,10.83,23.68,27.48,23.68,27.48-8.49,27.48-23.68Z"/>
        <path class="st2" d="M465.35-333.12c0,11.31-8.65,17.94-21.66,17.94h-31.03v20.69h-6.79v-56.57h37.82c13.01,0,21.66,6.63,21.66,17.94ZM458.39-333.12c0-7.92-5.98-11.64-15.19-11.64h-30.55v23.28h30.55c9.21,0,15.19-3.72,15.19-11.64Z"/>
        <path class="st2" d="M527.14-300.8v6.3h-54.71v-56.57h53.91v6.3h-47.12v18.35h39.92v6.3h-39.92v19.32h47.93Z"/>
        <path class="st2" d="M594.35-351.07v56.57h-5.98l-47.52-47.93v47.93h-6.63v-56.57h7.35l46.15,46.63v-46.63h6.63Z"/>
      </g>
      <path class="st2" d="M128.66-361.05c-.5-9.47-9.43-35.07-47.62-35.07-31.21,0-41.73,18.96-41.73,27.77,0,13.81,13.5,27.41,23.43,37.88,43.89,46.32,1.15,79.9-24.02,64.96-.66-.39-3.12-1.81-4.68-3.16-.3,1.33,3.9,5.51,8.62,9.09,11.44,7.04,26.18,10.76,36.71,10.76,13.93,0,15.21-1.23,18.14-4.71,8.87-10.54,13.95-38.14.5-71.41,21-7.46,31.43-21.3,30.65-36.12ZM48.28-270.73c1.28-.35,2.41-.81,3.36-1.32h0c12.62-6.18,19.41-24.4-5.04-49.71-10.59-10.97-18.63-21.21-18.63-37.76,0-12.19,8.71-19.92,15.66-23.93-3.65.08-5.87,1.39-9.53,4.28-6.27,4.95-13.11,12.61-17.69,21.16-.45.84-.86,1.67-1.22,2.47-5.11,9.57-7.8,20.77-7.8,33.08,0,.7.01,1.39.03,2.07.31,12.08,3.59,22.94,8.59,32.53,3.83,6.69,8.55,12.05,14.43,15.18,1.2.59,2.41,1.08,3.6,1.47,4.48,1.8,9.58,1.89,14.25.48ZM145.9-357.59c-.07-.14-.15-.28-.22-.42-6.29-11.54-17.79-23.24-21.89-21.82,8,5.94,15.04,13.25,16.49,26.98,1.64,15.48-8.05,31.2-22.69,37.62,3.47,17.29,5.94,39.78-.84,51.63-2.1,3.66-6.07,6.2-9.18,7.47,3.65,1.31,8.12-.97,13.12-4.25,19.79-12.98,31.95-33.28,33.8-56.52.14-1.86.22-3.71.22-5.58,0-13.2-3.02-25.12-8.8-35.13Z"/>
    </g>
    <g>
      <path class="st2" d="M906.72-325.77c-2.84,0-5.6.92-7.77,2.66l.92-17.57h16.62v-6.66h-22.97l-1.67,32.56,6.6.75c1.34-4,3.93-5.16,6.43-5.16,3.34,0,5.68,2.08,5.68,7.5v9.58c0,5.25-2.5,7.41-6.51,7.41s-6.01-2.58-6.43-10.41l-6.68.58c.42,11.08,5.01,16.49,13.03,16.49s13.78-4.83,13.78-13.99v-10.91c0-7.58-4.18-12.82-11.03-12.82Z"/>
      <polygon class="st2" points="814.12 -347.64 774.7 -347.64 770.6 -334.37 782.85 -334.37 768.85 -289.05 783.71 -289.05 797.71 -334.37 810.02 -334.37 814.12 -347.64"/>
      <path class="st2" d="M874.31-348.34c-8.69,0-12.95,5.66-13.36,17.49l6.68.5c.42-8.91,3.01-11.32,6.6-11.32,3.26,0,5.76,1.92,5.76,5.83v1c0,5.83-4.26,10.66-7.27,14.49-4.76,5.74-11.44,14.57-11.44,25.32v6h25.89v-6.66h-18.37c.42-8.08,4.43-13.66,8.35-18.49,4.68-5.5,10.02-11.58,10.02-19.57v-2.25c0-7.91-5.09-12.32-12.86-12.32Z"/>
      <path class="st2" d="M816.31-339.39l-15.55,50.34h15.37l4.21-13.64c4.5,2.59,8.18,6.98,9.79,13.64h14.66v-58.59h-17.26c-5.15,0-9.7,3.35-11.22,8.25ZM830.13-304.5c-2.82-1.49-5.78-2.34-8.4-2.7l8.4-27.18v29.88Z"/>
      <path class="st2" d="M936.82-348.34c-7.6,0-13.86,4.99-13.86,14.66v30.89c0,9.66,6.26,14.74,13.86,14.74s13.78-5.08,13.78-14.74v-30.89c0-9.66-6.18-14.66-13.78-14.66ZM943.5-302.96c0,5.41-2.75,8.16-6.68,8.16s-6.77-2.75-6.77-8.16v-30.56c0-5.41,2.92-8.16,6.77-8.16s6.68,2.75,6.68,8.16v30.56Z"/>
      <path class="st2" d="M754.56-347.64l-14,45.33v-45.33h-17.26c-5.15,0-9.7,3.35-11.22,8.25l-11.45,37.07v-45.33h-14.66v58.59h17.26c5.16,0,9.7-3.35,11.22-8.25l11.45-37.07v45.33h17.26c5.15,0,9.7-3.35,11.22-8.25l15.55-50.34h-15.38Z"/>
    </g>
    <polygon class="st2" points="639.82 -244.69 639.82 -244.69 639.18 -318.93 639.82 -392 639.82 -392 640.85 -318.93 639.82 -244.69"/>
  </g>
  <g class="st4">
    <g>
      <g>
        <path d="M239.07-312.19c0,11.64-10.75,19.56-31.28,19.56-14.55,0-26.75-3.96-35.64-11.07l8.65-10.18c6.71,5.66,16,8.81,27.32,8.81,9.7,0,14.55-1.78,14.55-5.5s-4.53-4.85-16.16-5.82c-16.81-1.45-32.08-5.17-32.08-17.78s13.09-18.75,31.03-18.75c12.12,0,23.28,2.91,31.03,8.41l-8.32,10.26c-6.3-4.44-13.9-6.22-22.71-6.3-6.63,0-14.63,1.05-14.63,5.09,0,3.8,6.55,4.28,16.65,5.09,18.51,1.53,31.6,5.17,31.6,18.18Z"/>
        <path d="M311.13-331.27c0,13.17-10.26,19.8-25.7,19.8h-22.79v16.97h-16.49v-56.57h39.28c15.44,0,25.7,6.79,25.7,19.8ZM294.4-330.94c0-5.74-4.2-7.6-10.34-7.6h-21.42v15.11h21.42c6.14,0,10.34-1.86,10.34-7.52Z"/>
        <path d="M329.93-322.78c0-18.43,12.93-29.98,34.43-29.98s34.43,11.56,34.43,29.98-12.93,29.98-34.43,29.98-34.43-11.56-34.43-29.98ZM391.83-322.78c0-15.19-10.83-23.68-27.48-23.68s-27.48,8.49-27.48,23.68,10.83,23.68,27.48,23.68,27.48-8.49,27.48-23.68Z"/>
        <path d="M465.35-333.12c0,11.31-8.65,17.94-21.66,17.94h-31.03v20.69h-6.79v-56.57h37.82c13.01,0,21.66,6.63,21.66,17.94ZM458.39-333.12c0-7.92-5.98-11.64-15.19-11.64h-30.55v23.28h30.55c9.21,0,15.19-3.72,15.19-11.64Z"/>
        <path d="M527.14-300.8v6.3h-54.71v-56.57h53.91v6.3h-47.12v18.35h39.92v6.3h-39.92v19.32h47.93Z"/>
        <path d="M594.35-351.07v56.57h-5.98l-47.52-47.93v47.93h-6.63v-56.57h7.35l46.15,46.63v-46.63h6.63Z"/>
      </g>
      <path d="M128.66-361.05c-.5-9.47-9.43-35.07-47.62-35.07-31.21,0-41.73,18.96-41.73,27.77,0,13.81,13.5,27.41,23.43,37.88,43.89,46.32,1.15,79.9-24.02,64.96-.66-.39-3.12-1.81-4.68-3.16-.3,1.33,3.9,5.51,8.62,9.09,11.44,7.04,26.18,10.76,36.71,10.76,13.93,0,15.21-1.23,18.14-4.71,8.87-10.54,13.95-38.14.5-71.41,21-7.46,31.43-21.3,30.65-36.12ZM48.28-270.73c1.28-.35,2.41-.81,3.36-1.32h0c12.62-6.18,19.41-24.4-5.04-49.71-10.59-10.97-18.63-21.21-18.63-37.76,0-12.19,8.71-19.92,15.66-23.93-3.65.08-5.87,1.39-9.53,4.28-6.27,4.95-13.11,12.61-17.69,21.16-.45.84-.86,1.67-1.22,2.47-5.11,9.57-7.8,20.77-7.8,33.08,0,.7.01,1.39.03,2.07.31,12.08,3.59,22.94,8.59,32.53,3.83,6.69,8.55,12.05,14.43,15.18,1.2.59,2.41,1.08,3.6,1.47,4.48,1.8,9.58,1.89,14.25.48ZM145.9-357.59c-.07-.14-.15-.28-.22-.42-6.29-11.54-17.79-23.24-21.89-21.82,8,5.94,15.04,13.25,16.49,26.98,1.64,15.48-8.05,31.2-22.69,37.62,3.47,17.29,5.94,39.78-.84,51.63-2.1,3.66-6.07,6.2-9.18,7.47,3.65,1.31,8.12-.97,13.12-4.25,19.79-12.98,31.95-33.28,33.8-56.52.14-1.86.22-3.71.22-5.58,0-13.2-3.02-25.12-8.8-35.13Z"/>
    </g>
    <g>
      <path d="M906.72-325.77c-2.84,0-5.6.92-7.77,2.66l.92-17.57h16.62v-6.66h-22.97l-1.67,32.56,6.6.75c1.34-4,3.93-5.16,6.43-5.16,3.34,0,5.68,2.08,5.68,7.5v9.58c0,5.25-2.5,7.41-6.51,7.41s-6.01-2.58-6.43-10.41l-6.68.58c.42,11.08,5.01,16.49,13.03,16.49s13.78-4.83,13.78-13.99v-10.91c0-7.58-4.18-12.82-11.03-12.82Z"/>
      <polygon points="814.12 -347.64 774.7 -347.64 770.6 -334.37 782.85 -334.37 768.85 -289.05 783.71 -289.05 797.71 -334.37 810.02 -334.37 814.12 -347.64"/>
      <path d="M874.31-348.34c-8.69,0-12.95,5.66-13.36,17.49l6.68.5c.42-8.91,3.01-11.32,6.6-11.32,3.26,0,5.76,1.92,5.76,5.83v1c0,5.83-4.26,10.66-7.27,14.49-4.76,5.74-11.44,14.57-11.44,25.32v6h25.89v-6.66h-18.37c.42-8.08,4.43-13.66,8.35-18.49,4.68-5.5,10.02-11.58,10.02-19.57v-2.25c0-7.91-5.09-12.32-12.86-12.32Z"/>
      <path d="M816.31-339.39l-15.55,50.34h15.37l4.21-13.64c4.5,2.59,8.18,6.98,9.79,13.64h14.66v-58.59h-17.26c-5.15,0-9.7,3.35-11.22,8.25ZM830.13-304.5c-2.82-1.49-5.78-2.34-8.4-2.7l8.4-27.18v29.88Z"/>
      <path d="M936.82-348.34c-7.6,0-13.86,4.99-13.86,14.66v30.89c0,9.66,6.26,14.74,13.86,14.74s13.78-5.08,13.78-14.74v-30.89c0-9.66-6.18-14.66-13.78-14.66ZM943.5-302.96c0,5.41-2.75,8.16-6.68,8.16s-6.77-2.75-6.77-8.16v-30.56c0-5.41,2.92-8.16,6.77-8.16s6.68,2.75,6.68,8.16v30.56Z"/>
      <path d="M754.56-347.64l-14,45.33v-45.33h-17.26c-5.15,0-9.7,3.35-11.22,8.25l-11.45,37.07v-45.33h-14.66v58.59h17.26c5.16,0,9.7-3.35,11.22-8.25l11.45-37.07v45.33h17.26c5.15,0,9.7-3.35,11.22-8.25l15.55-50.34h-15.38Z"/>
    </g>
    <polygon points="639.82 -244.69 639.82 -244.69 639.18 -318.93 639.82 -392 639.82 -392 640.85 -318.93 639.82 -244.69"/>
  </g>
  <g class="st4">
    <g>
      <g>
        <path class="st2" d="M236.32-310.13c0,11.64-10.75,19.56-31.28,19.56-14.55,0-26.75-3.96-35.64-11.07l8.65-10.18c6.71,5.66,16,8.81,27.32,8.81,9.7,0,14.55-1.78,14.55-5.5s-4.53-4.85-16.16-5.82c-16.81-1.45-32.08-5.17-32.08-17.78s13.09-18.75,31.03-18.75c12.12,0,23.28,2.91,31.03,8.41l-8.32,10.26c-6.3-4.44-13.9-6.22-22.71-6.3-6.63,0-14.63,1.05-14.63,5.09,0,3.8,6.55,4.28,16.65,5.09,18.51,1.53,31.6,5.17,31.6,18.18Z"/>
        <path class="st2" d="M308.38-329.2c0,13.17-10.26,19.8-25.7,19.8h-22.79v16.97h-16.49v-56.57h39.28c15.44,0,25.7,6.79,25.7,19.8ZM291.65-328.88c0-5.74-4.2-7.6-10.34-7.6h-21.42v15.11h21.42c6.14,0,10.34-1.86,10.34-7.52Z"/>
        <path class="st2" d="M327.18-320.72c0-18.43,12.93-29.98,34.43-29.98s34.43,11.56,34.43,29.98-12.93,29.98-34.43,29.98-34.43-11.56-34.43-29.98ZM389.09-320.72c0-15.19-10.83-23.68-27.48-23.68s-27.48,8.49-27.48,23.68,10.83,23.68,27.48,23.68,27.48-8.49,27.48-23.68Z"/>
        <path class="st2" d="M462.6-331.06c0,11.31-8.65,17.94-21.66,17.94h-31.03v20.69h-6.79v-56.57h37.82c13.01,0,21.66,6.63,21.66,17.94ZM455.65-331.06c0-7.92-5.98-11.64-15.19-11.64h-30.55v23.28h30.55c9.21,0,15.19-3.72,15.19-11.64Z"/>
        <path class="st2" d="M524.39-298.73v6.3h-54.71v-56.57h53.91v6.3h-47.12v18.35h39.92v6.3h-39.92v19.32h47.93Z"/>
        <path class="st2" d="M591.6-349v56.57h-5.98l-47.52-47.93v47.93h-6.63v-56.57h7.35l46.15,46.63v-46.63h6.63Z"/>
      </g>
      <g>
        <circle class="st2" cx="78.29" cy="-320.49" r="71.51"/>
        <path class="st1" d="M125.91-358.99c-.5-9.47-9.43-35.07-47.62-35.07-31.21,0-41.73,18.96-41.73,27.77,0,13.81,13.5,27.41,23.43,37.88,43.89,46.32,1.15,79.9-24.02,64.96-.66-.39-3.12-1.81-4.68-3.16-.3,1.33,3.9,5.51,8.62,9.09,11.44,7.04,26.18,10.76,36.71,10.76,13.93,0,15.21-1.23,18.14-4.71,8.87-10.54,13.95-38.14.5-71.41,21-7.46,31.43-21.3,30.65-36.12ZM45.53-268.66c1.28-.35,2.41-.81,3.36-1.32h0c12.62-6.18,19.41-24.4-5.04-49.71-10.59-10.97-18.63-21.21-18.63-37.76,0-12.19,8.71-19.92,15.66-23.93-3.65.08-5.87,1.39-9.53,4.28-6.27,4.95-13.11,12.61-17.69,21.16-.45.84-.86,1.67-1.22,2.47-5.11,9.57-7.8,20.77-7.8,33.08,0,.7.01,1.39.03,2.07.31,12.08,3.59,22.94,8.59,32.53,3.83,6.69,8.55,12.05,14.43,15.18,1.2.59,2.41,1.08,3.6,1.47,4.48,1.8,9.58,1.89,14.25.48ZM143.15-355.52c-.07-.14-.15-.28-.22-.42-6.29-11.54-17.79-23.24-21.89-21.82,8,5.94,15.04,13.25,16.49,26.98,1.64,15.48-8.05,31.2-22.69,37.62,3.47,17.29,5.94,39.78-.84,51.63-2.1,3.66-6.07,6.2-9.18,7.47,3.65,1.31,8.12-.97,13.12-4.25,19.79-12.98,31.95-33.28,33.8-56.52.14-1.86.22-3.71.22-5.58,0-13.2-3.02-25.12-8.8-35.13Z"/>
        <path class="st3" d="M48.09-385.4c-8.26,6.17-11.53,14.21-11.53,19.11,0,13.81,13.5,27.41,23.43,37.88,43.89,46.32,1.15,79.9-24.02,64.96-.66-.39-3.12-1.81-4.68-3.16-.18.82,1.33,2.7,3.61,4.86,17.57,10.81,44.76,1.85,47.11-24.08,3.67-40.46-42.89-55.64-42.89-80.3,0-8,3.68-14.4,8.96-19.27ZM43.61-268.18c.65-.14,1.29-.29,1.92-.49,1.28-.35,2.41-.81,3.36-1.32h0c12.62-6.18,19.41-24.4-5.04-49.71-10.59-10.97-18.63-21.21-18.63-37.76,0-12.19,8.71-19.92,15.66-23.93-3.58.08-5.8,1.35-9.33,4.12-15.46,12.77-14.76,36,9.1,60.29,27.89,28.39,14.49,45.37,2.98,48.78ZM133.16-369.6c-4.89-5.4-9.75-8.98-12.12-8.16,8,5.94,15.04,13.25,16.49,26.98,1.64,15.48-8.05,31.2-22.69,37.62,3.47,17.29,5.94,39.78-.84,51.63-2.1,3.66-6.07,6.2-9.18,7.47,1.95.7,4.14.37,6.51-.58,7.93-4.44,14.01-21.51,6.85-56.73,22.11-12.53,29.67-39.81,14.99-58.23ZM125.91-358.99c-.25-4.76-2.63-13.59-9.79-21.2,17.07,19.58,6.4,46.91-23.69,55.29,18.1,44.41,5.77,68.88-1.67,76.75,1.79-.75,2.74-1.82,4-3.32,8.87-10.54,13.95-38.14.5-71.41,21-7.46,31.43-21.3,30.65-36.12Z"/>
      </g>
    </g>
    <g>
      <path class="st2" d="M911.03-327.84c-2.84,0-5.6.92-7.77,2.66l.92-17.57h16.62v-6.66h-22.97l-1.67,32.56,6.6.75c1.34-4,3.93-5.16,6.43-5.16,3.34,0,5.68,2.08,5.68,7.5v9.58c0,5.25-2.5,7.41-6.51,7.41s-6.01-2.58-6.43-10.41l-6.68.58c.42,11.08,5.01,16.49,13.03,16.49s13.78-4.83,13.78-13.99v-10.91c0-7.58-4.18-12.82-11.03-12.82Z"/>
      <polygon class="st2" points="818.43 -349.7 779.01 -349.7 774.91 -336.43 787.16 -336.43 773.16 -291.11 788.02 -291.11 802.02 -336.43 814.34 -336.43 818.43 -349.7"/>
      <path class="st2" d="M878.62-350.4c-8.69,0-12.95,5.66-13.36,17.49l6.68.5c.42-8.91,3.01-11.32,6.6-11.32,3.26,0,5.76,1.92,5.76,5.83v1c0,5.83-4.26,10.66-7.27,14.49-4.76,5.74-11.44,14.57-11.44,25.32v6h25.89v-6.66h-18.37c.42-8.08,4.43-13.66,8.35-18.49,4.68-5.5,10.02-11.58,10.02-19.57v-2.25c0-7.91-5.09-12.32-12.86-12.32Z"/>
      <path class="st2" d="M820.62-341.45l-15.55,50.34h15.37l4.21-13.64c4.5,2.59,8.18,6.98,9.79,13.64h14.66v-58.59h-17.26c-5.15,0-9.7,3.35-11.22,8.25ZM834.44-306.57c-2.82-1.49-5.78-2.34-8.4-2.7l8.4-27.18v29.88Z"/>
      <path class="st2" d="M941.13-350.4c-7.6,0-13.86,4.99-13.86,14.66v30.89c0,9.66,6.26,14.74,13.86,14.74s13.78-5.08,13.78-14.74v-30.89c0-9.66-6.18-14.66-13.78-14.66ZM947.81-305.02c0,5.41-2.75,8.16-6.68,8.16s-6.77-2.75-6.77-8.16v-30.56c0-5.41,2.92-8.16,6.77-8.16s6.68,2.75,6.68,8.16v30.56Z"/>
      <path class="st2" d="M758.87-349.7l-14,45.33v-45.33h-17.26c-5.15,0-9.7,3.35-11.22,8.25l-11.45,37.07v-45.33h-14.66v58.59h17.26c5.16,0,9.7-3.35,11.22-8.25l11.45-37.07v45.33h17.26c5.15,0,9.7-3.35,11.22-8.25l15.55-50.34h-15.38Z"/>
    </g>
    <polygon class="st2" points="644.13 -246.76 644.13 -246.76 643.49 -321 644.13 -394.06 644.13 -394.06 645.16 -321 644.13 -246.76"/>
  </g>
  <g>
    <g>
      <path class="st2" d="M468.5-327.98c-2.84,0-5.6.92-7.77,2.66l.92-17.57h16.62v-6.66h-22.97l-1.67,32.56,6.6.75c1.34-4,3.93-5.16,6.43-5.16,3.34,0,5.68,2.08,5.68,7.5v9.58c0,5.25-2.5,7.41-6.51,7.41s-6.01-2.58-6.43-10.41l-6.68.58c.42,11.08,5.01,16.49,13.03,16.49s13.78-4.83,13.78-13.99v-10.91c0-7.58-4.18-12.82-11.03-12.82Z"/>
      <polygon class="st2" points="375.9 -349.85 336.48 -349.85 332.38 -336.58 344.63 -336.58 330.63 -291.26 345.49 -291.26 359.49 -336.58 371.8 -336.58 375.9 -349.85"/>
      <path class="st2" d="M436.09-350.55c-8.69,0-12.95,5.66-13.36,17.49l6.68.5c.42-8.91,3.01-11.32,6.6-11.32,3.26,0,5.76,1.92,5.76,5.83v1c0,5.83-4.26,10.66-7.27,14.49-4.76,5.74-11.44,14.57-11.44,25.32v6h25.89v-6.66h-18.37c.42-8.08,4.43-13.66,8.35-18.49,4.68-5.5,10.02-11.58,10.02-19.57v-2.25c0-7.91-5.09-12.32-12.86-12.32Z"/>
      <path class="st2" d="M378.09-341.6l-15.55,50.34h15.37l4.21-13.64c4.5,2.59,8.18,6.98,9.79,13.64h14.66v-58.59h-17.26c-5.15,0-9.7,3.35-11.22,8.25ZM391.91-306.71c-2.82-1.49-5.78-2.34-8.4-2.7l8.4-27.18v29.88Z"/>
      <path class="st2" d="M498.6-350.55c-7.6,0-13.86,4.99-13.86,14.66v30.89c0,9.66,6.26,14.74,13.86,14.74s13.78-5.08,13.78-14.74v-30.89c0-9.66-6.18-14.66-13.78-14.66ZM505.28-305.17c0,5.41-2.75,8.16-6.68,8.16s-6.77-2.75-6.77-8.16v-30.56c0-5.41,2.92-8.16,6.77-8.16s6.68,2.75,6.68,8.16v30.56Z"/>
      <path class="st2" d="M316.34-349.85l-14,45.33v-45.33h-17.26c-5.15,0-9.7,3.35-11.22,8.25l-11.45,37.07v-45.33h-14.66v58.59h17.26c5.16,0,9.7-3.35,11.22-8.25l11.45-37.07v45.33h17.26c5.15,0,9.7-3.35,11.22-8.25l15.55-50.34h-15.38Z"/>
    </g>
    <g>
      <circle class="st5" cx="86.55" cy="-320.41" r="73.65"/>
      <path class="st2" d="M86.55-249.25c-39.24,0-71.16-31.92-71.16-71.16s31.92-71.16,71.16-71.16,71.16,31.92,71.16,71.16-31.92,71.16-71.16,71.16ZM86.55-389.01c-37.83,0-68.61,30.78-68.61,68.61s30.78,68.61,68.61,68.61,68.61-30.78,68.61-68.61-30.78-68.61-68.61-68.61Z"/>
      <g>
        <circle class="st2" cx="86.73" cy="-320.47" r="41.93"/>
        <path class="st1" d="M114.66-343.05c-.29-5.55-5.53-20.57-27.92-20.57-18.31,0-24.47,11.12-24.47,16.28,0,8.1,7.92,16.07,13.74,22.21,25.74,27.16.67,46.85-14.09,38.1-.39-.23-1.83-1.06-2.74-1.85-.17.78,2.29,3.23,5.06,5.33,6.71,4.13,15.35,6.31,21.53,6.31,8.17,0,8.92-.72,10.64-2.76,5.2-6.18,8.18-22.37.29-41.88,12.31-4.37,18.43-12.49,17.97-21.18ZM67.52-290.08c.75-.21,1.41-.47,1.97-.77h0c7.4-3.62,11.38-14.31-2.96-29.15-6.21-6.43-10.93-12.44-10.93-22.14,0-7.15,5.11-11.68,9.18-14.03-2.14.04-3.44.81-5.59,2.51-3.68,2.9-7.69,7.39-10.37,12.41-.27.5-.5.98-.72,1.45-3,5.61-4.57,12.18-4.57,19.4,0,.41,0,.81.02,1.22.18,7.09,2.1,13.45,5.04,19.08,2.25,3.92,5.01,7.07,8.46,8.9.71.35,1.41.63,2.11.86,2.63,1.06,5.62,1.11,8.35.28ZM124.77-341.01c-.04-.08-.09-.16-.13-.25-3.69-6.77-10.43-13.63-12.84-12.79,4.69,3.48,8.82,7.77,9.67,15.82.96,9.08-4.72,18.3-13.31,22.06,2.04,10.14,3.49,23.33-.49,30.28-1.23,2.15-3.56,3.63-5.38,4.38,2.14.77,4.76-.57,7.69-2.49,11.6-7.61,18.74-19.52,19.82-33.14.08-1.09.13-2.18.13-3.27,0-7.74-1.77-14.73-5.16-20.6Z"/>
        <path class="st3" d="M69.02-358.54c-4.85,3.62-6.76,8.33-6.76,11.21,0,8.1,7.92,16.07,13.74,22.21,25.74,27.16.67,46.85-14.09,38.1-.39-.23-1.83-1.06-2.74-1.85-.11.48.78,1.58,2.12,2.85,10.3,6.34,26.25,1.09,27.63-14.12,2.15-23.73-25.15-32.63-25.15-47.09,0-4.69,2.16-8.45,5.26-11.3ZM66.4-289.79c.38-.08.75-.17,1.13-.28.75-.21,1.41-.47,1.97-.77h0c7.4-3.62,11.38-14.31-2.96-29.15-6.21-6.43-10.93-12.44-10.93-22.14,0-7.15,5.11-11.68,9.18-14.03-2.1.04-3.4.79-5.47,2.42-9.07,7.49-8.66,21.11,5.34,35.36,16.35,16.65,8.5,26.61,1.75,28.61ZM118.91-349.27c-2.87-3.17-5.72-5.27-7.11-4.79,4.69,3.48,8.82,7.77,9.67,15.82.96,9.08-4.72,18.3-13.31,22.06,2.04,10.14,3.49,23.33-.49,30.28-1.23,2.15-3.56,3.63-5.38,4.38,1.14.41,2.42.22,3.82-.34,4.65-2.6,8.22-12.62,4.02-33.27,12.96-7.35,17.4-23.35,8.79-34.15ZM114.66-343.05c-.15-2.79-1.55-7.97-5.74-12.43,10.01,11.48,3.76,27.51-13.89,32.43,10.61,26.04,3.38,40.4-.98,45.01,1.05-.44,1.61-1.07,2.35-1.95,5.2-6.18,8.18-22.37.29-41.88,12.31-4.37,18.43-12.49,17.97-21.18Z"/>
      </g>
      <g>
        <path class="st2" d="M48.04-358.15c2.01,1.5,1.99,4.39-.66,7.93-1.88,2.51-4.14,4.11-6.52,4.73l-.64-2.81c1.84-.43,3.59-1.63,5.05-3.58,1.25-1.68,1.57-2.74.93-3.22-.63-.47-1.42.16-3.09,2.04-2.42,2.72-5.04,4.88-7.22,3.25-2.09-1.57-1.55-4.69.77-7.79,1.57-2.1,3.51-3.65,5.46-4.28l.7,2.77c-1.58.52-2.87,1.6-4.02,3.11-.86,1.15-1.71,2.66-1.01,3.19.66.49,1.59-.58,3.03-2.22,2.66-3,4.98-4.79,7.23-3.11Z"/>
        <path class="st2" d="M61-372.61c1.58,2.37.53,4.79-2.24,6.64l-4.09,2.73,2.03,3.05-2.96,1.98-6.78-10.16,7.05-4.71c2.77-1.85,5.43-1.86,6.99.48ZM58.03-370.55c-.69-1.03-1.67-.86-2.77-.12l-3.85,2.57,1.81,2.71,3.85-2.57c1.1-.74,1.63-1.57.96-2.59Z"/>
        <path class="st2" d="M69.71-374.23c-.67-4.08,2.02-6.93,6.78-7.71,4.76-.79,8.25,1.04,8.92,5.12.67,4.08-2.04,6.93-6.8,7.72-4.76.79-8.23-1.04-8.91-5.12ZM81.84-376.23c-.38-2.27-2.22-3.29-4.87-2.85-2.63.44-4.07,2-3.69,4.27.38,2.27,2.22,3.29,4.87,2.85,2.65-.44,4.07-2,3.69-4.27Z"/>
        <path class="st2" d="M105.32-375.56c-.55,2.79-3,3.76-6.27,3.12l-4.82-.95-.71,3.59-3.49-.69,2.36-11.97,8.31,1.64c3.27.64,5.16,2.51,4.61,5.26ZM101.77-376.19c.24-1.22-.57-1.78-1.87-2.04l-4.53-.89-.63,3.2,4.53.89c1.3.26,2.27.04,2.5-1.16Z"/>
        <path class="st2" d="M119.45-362.02l-1.39,2.34-11.19-6.67,6.25-10.49,11.03,6.57-1.39,2.34-8.02-4.77-1.03,1.72,6.61,3.94-1.33,2.23-6.61-3.93-1.11,1.86,8.18,4.87Z"/>
        <path class="st2" d="M139.42-353.86l-9.48,7.71-1.97-2.42,1.25-11.18-6.23,5.06-2.17-2.67,9.48-7.71,2.38,2.92-1.23,10.33,5.8-4.71,2.17,2.67Z"/>
      </g>
      <g>
        <path class="st2" d="M59.31-268.84c-.9,1.37-2.56,1.34-4.41.12l-5.73-3.79,5.09-7.71,5.29,3.5c1.85,1.22,2.54,2.72,1.72,3.96-.58.88-1.65,1.25-2.84.57,1.17.87,1.7,2.12.89,3.34ZM57.64-270.23c.52-.78.03-1.31-.96-1.96l-3.63-2.4-1.22,1.85,3.63,2.4c.99.65,1.68.89,2.18.11ZM53.93-275.94l3.27,2.16c.96.63,1.65.87,2.13.16.47-.7-.02-1.26-.98-1.89l-3.27-2.16-1.15,1.74Z"/>
        <path class="st2" d="M71.38-261.63l-1.58-3.8-3.18-1.01-.95,3-2-.64,2.8-8.81,6.08,1.93c2.15.68,3.46,2.19,2.85,4.11-.48,1.5-1.76,2.11-3.33,1.99l1.72,4-2.4-.76ZM71.11-266.84c1.06.34,1.92.33,2.23-.65.31-.98-.39-1.48-1.45-1.82l-3.98-1.26-.78,2.47,3.98,1.26Z"/>
        <path class="st2" d="M87.43-261.65l-5.58-.2-1.06,1.92-2.26-.08,5.22-9.06,2.31.08,4.57,9.41-2.28-.08-.92-1.99ZM86.61-263.39l-1.78-3.83-2.04,3.69,3.82.14Z"/>
        <path class="st2" d="M104.86-265.2c.41,1.78-1,3.4-4.19,4.13-2.28.52-4.28.3-5.93-.56l.86-1.67c1.34.76,2.88.91,4.72.49,1.83-.42,2.68-.98,2.51-1.72-.17-.75-1.14-.74-3.26-.45-2.63.37-5.15.35-5.59-1.58-.43-1.88,1.34-3.37,4.13-4.01,1.97-.45,3.78-.35,5.13.28l-.81,1.69c-1.16-.53-2.46-.56-3.93-.24-1.23.27-2.67.83-2.48,1.65.18.77,1.48.56,3.3.29,2.93-.42,5.08-.28,5.54,1.7Z"/>
        <path class="st2" d="M110.83-264.72l-3.82-8.41,1.92-.87,3.82,8.41-1.92.87Z"/>
        <path class="st2" d="M124.56-275.06l1.05,1.49-7.07,4.98-5.32-7.55,1.73-1.22,4.27,6.07,5.34-3.76Z"/>
      </g>
    </g>
    <polygon class="st2" points="204.13 -246.75 204.13 -246.75 203.48 -321 204.13 -394.06 204.13 -394.06 205.16 -321 204.13 -246.75"/>
  </g>
  <g>
    <circle class="st5" cx="93.64" cy="87.41" r="83.88"/>
    <path class="st2" d="M93.64,168.45c-44.69,0-81.04-36.35-81.04-81.04S48.95,6.37,93.64,6.37s81.04,36.35,81.04,81.04-36.35,81.04-81.04,81.04ZM93.64,9.28C50.56,9.28,15.51,44.33,15.51,87.41s35.05,78.13,78.13,78.13,78.13-35.05,78.13-78.13S136.72,9.28,93.64,9.28Z"/>
    <g>
      <circle class="st2" cx="93.85" cy="87.34" r="47.76"/>
      <path class="st1" d="M125.65,61.63c-.33-6.32-6.3-23.42-31.8-23.42-20.85,0-27.87,12.66-27.87,18.54,0,9.22,9.02,18.3,15.64,25.3,29.31,30.94.77,53.36-16.04,43.39-.44-.26-2.08-1.21-3.13-2.11-.2.89,2.6,3.68,5.76,6.07,7.64,4.7,17.48,7.19,24.52,7.19,9.3,0,10.16-.82,12.11-3.14,5.92-7.04,9.32-25.47.33-47.69,14.02-4.98,20.99-14.22,20.47-24.12ZM71.97,121.95c.85-.24,1.61-.54,2.24-.88h0c8.43-4.12,12.96-16.29-3.37-33.2-7.07-7.32-12.45-14.17-12.45-25.22,0-8.14,5.82-13.3,10.46-15.98-2.44.05-3.92.93-6.36,2.86-4.19,3.31-8.76,8.42-11.81,14.13-.3.56-.57,1.11-.82,1.65-3.41,6.39-5.21,13.87-5.21,22.09,0,.46,0,.93.02,1.38.2,8.07,2.4,15.32,5.74,21.72,2.56,4.47,5.71,8.05,9.64,10.14.8.4,1.61.72,2.41.98,2.99,1.2,6.4,1.26,9.51.32ZM137.17,63.94c-.05-.09-.1-.19-.15-.28-4.2-7.71-11.88-15.52-14.62-14.57,5.34,3.96,10.04,8.85,11.01,18.02,1.09,10.34-5.38,20.84-15.16,25.13,2.32,11.55,3.97,26.57-.56,34.48-1.4,2.45-4.05,4.14-6.13,4.99,2.44.87,5.43-.65,8.76-2.84,13.21-8.67,21.34-22.23,22.57-37.75.1-1.24.15-2.48.15-3.73,0-8.82-2.02-16.77-5.88-23.46Z"/>
      <path class="st3" d="M73.68,43.98c-5.52,4.12-7.7,9.49-7.7,12.76,0,9.22,9.02,18.3,15.64,25.3,29.31,30.94.77,53.36-16.04,43.39-.44-.26-2.08-1.21-3.13-2.11-.12.54.89,1.8,2.41,3.25,11.74,7.22,29.89,1.24,31.46-16.08,2.45-27.02-28.64-37.16-28.64-53.63,0-5.35,2.46-9.62,5.99-12.87ZM70.69,122.27c.43-.09.86-.2,1.28-.32.85-.24,1.61-.54,2.24-.88h0c8.43-4.12,12.96-16.29-3.37-33.2-7.07-7.32-12.45-14.17-12.45-25.22,0-8.14,5.82-13.3,10.46-15.98-2.39.05-3.87.9-6.23,2.75-10.33,8.53-9.86,24.04,6.08,40.27,18.62,18.96,9.68,30.3,1.99,32.58ZM130.49,54.54c-3.27-3.61-6.51-6-8.1-5.45,5.34,3.96,10.04,8.85,11.01,18.02,1.09,10.34-5.38,20.84-15.16,25.13,2.32,11.55,3.97,26.57-.56,34.48-1.4,2.45-4.05,4.14-6.13,4.99,1.3.47,2.76.25,4.35-.39,5.29-2.97,9.36-14.37,4.58-37.89,14.76-8.37,19.81-26.59,10.01-38.89ZM125.65,61.63c-.17-3.18-1.76-9.07-6.54-14.16,11.4,13.08,4.28,31.33-15.82,36.93,12.09,29.66,3.85,46-1.12,51.26,1.19-.5,1.83-1.22,2.67-2.22,5.92-7.04,9.32-25.47.33-47.69,14.02-4.98,20.99-14.22,20.47-24.12Z"/>
    </g>
    <g>
      <path class="st2" d="M49.78,44.43c2.29,1.71,2.27,4.99-.75,9.04-2.14,2.86-4.72,4.68-7.42,5.39l-.73-3.2c2.1-.49,4.09-1.85,5.75-4.08,1.43-1.91,1.79-3.13,1.06-3.67-.72-.54-1.62.18-3.52,2.33-2.76,3.09-5.74,5.55-8.22,3.7-2.39-1.78-1.76-5.34.88-8.87,1.78-2.39,4-4.15,6.22-4.87l.8,3.15c-1.8.59-3.27,1.82-4.58,3.54-.98,1.3-1.95,3.03-1.15,3.63.75.56,1.81-.66,3.45-2.53,3.03-3.42,5.67-5.46,8.23-3.54Z"/>
      <path class="st2" d="M64.54,27.95c1.8,2.69.6,5.45-2.55,7.56l-4.66,3.11,2.32,3.47-3.37,2.25-7.72-11.57,8.03-5.36c3.16-2.11,6.18-2.12,7.96.54ZM61.16,30.3c-.78-1.17-1.9-.98-3.15-.14l-4.38,2.92,2.06,3.09,4.38-2.92c1.26-.84,1.86-1.79,1.09-2.95Z"/>
      <path class="st2" d="M74.47,26.12c-.77-4.64,2.3-7.89,7.73-8.79,5.43-.9,9.39,1.18,10.16,5.83.77,4.64-2.32,7.89-7.75,8.79-5.43.9-9.37-1.19-10.14-5.83ZM88.28,23.83c-.43-2.59-2.53-3.75-5.55-3.25-3,.5-4.64,2.28-4.21,4.86.43,2.59,2.53,3.75,5.55,3.25,3.02-.5,4.64-2.28,4.21-4.86Z"/>
      <path class="st2" d="M115.02,24.6c-.63,3.18-3.42,4.28-7.14,3.55l-5.49-1.08-.81,4.09-3.97-.78,2.69-13.64,9.47,1.87c3.72.73,5.87,2.86,5.26,5.99ZM110.97,23.88c.27-1.38-.65-2.03-2.13-2.32l-5.16-1.02-.72,3.64,5.16,1.02c1.48.29,2.58.04,2.85-1.32Z"/>
      <path class="st2" d="M131.11,40.02l-1.58,2.66-12.75-7.59,7.11-11.94,12.56,7.48-1.58,2.66-9.13-5.44-1.17,1.96,7.52,4.48-1.51,2.54-7.52-4.48-1.26,2.12,9.32,5.55Z"/>
      <path class="st2" d="M153.85,49.31l-10.79,8.78-2.25-2.76,1.43-12.74-7.09,5.77-2.47-3.04,10.79-8.78,2.71,3.33-1.4,11.77,6.6-5.37,2.47,3.04Z"/>
    </g>
    <g>
      <path class="st2" d="M62.62,146.13c-1.03,1.55-2.92,1.53-5.02.14l-6.53-4.31,5.79-8.78,6.03,3.98c2.11,1.39,2.89,3.09,1.95,4.51-.66,1-1.88,1.43-3.24.65,1.33.99,1.94,2.41,1.02,3.8ZM60.71,144.55c.59-.89.03-1.49-1.1-2.24l-4.14-2.73-1.39,2.11,4.14,2.73c1.13.74,1.91,1.01,2.49.13ZM56.49,138.05l3.72,2.46c1.09.72,1.88.99,2.42.18.53-.8-.02-1.44-1.11-2.16l-3.72-2.46-1.31,1.98Z"/>
      <path class="st2" d="M76.36,154.35l-1.8-4.32-3.63-1.15-1.08,3.41-2.28-.72,3.18-10.03,6.92,2.2c2.45.78,3.94,2.5,3.25,4.68-.54,1.71-2.01,2.41-3.79,2.27l1.96,4.55-2.74-.87ZM76.06,148.41c1.2.38,2.18.38,2.54-.74.36-1.12-.44-1.69-1.65-2.07l-4.53-1.44-.89,2.81,4.53,1.44Z"/>
      <path class="st2" d="M94.64,154.32l-6.35-.23-1.21,2.18-2.57-.09,5.95-10.32,2.63.09,5.2,10.71-2.6-.09-1.05-2.26ZM93.71,152.34l-2.03-4.36-2.33,4.2,4.36.15Z"/>
      <path class="st2" d="M114.49,150.29c.46,2.02-1.14,3.87-4.77,4.7-2.6.59-4.88.34-6.75-.63l.98-1.91c1.53.87,3.28,1.04,5.37.56,2.08-.48,3.05-1.11,2.85-1.96-.19-.85-1.3-.84-3.71-.51-2.99.42-5.87.4-6.37-1.8-.49-2.14,1.53-3.84,4.7-4.56,2.24-.51,4.31-.4,5.84.32l-.92,1.92c-1.33-.61-2.8-.64-4.48-.27-1.4.3-3.04.94-2.83,1.88.2.88,1.69.63,3.76.33,3.33-.48,5.79-.32,6.31,1.94Z"/>
      <path class="st2" d="M121.29,150.83l-4.35-9.58,2.19-.99,4.35,9.58-2.19.99Z"/>
      <path class="st2" d="M136.93,139.05l1.19,1.7-8.05,5.67-6.06-8.6,1.97-1.38,4.86,6.91,6.08-4.28Z"/>
    </g>
  </g>
</svg>